<?xml version="1.0" encoding="iso-8859-1"?>
<!-- Generator: Adobe Illustrator 19.0.0, SVG Export Plug-In . SVG Version: 6.00 Build 0)  -->
<svg version="1.1" id="Layer_1" xmlns="http://www.w3.org/2000/svg" xmlns:xlink="http://www.w3.org/1999/xlink" x="0px" y="0px"
	 viewBox="0 0 496.004 496.004" style="enable-background:new 0 0 496.004 496.004;" xml:space="preserve">
<g>
	<g>
		<path d="M332.608,184.906c-22.34-22.344-52.04-34.64-83.628-34.64c-31.596,0-61.296,12.296-83.636,34.64
			c-39.676,39.684-45.172,100.764-16.568,146.424l-1.216,1.216c-5.488,5.484-7.88,12.916-7.18,20.096l-12.628,12.636
			c-2.884-1.624-6.576-1.288-9.092,1.084l-58.976,55.56c-2.356,2.216-3.008,5.56-1.924,8.404c6.636-1.424,13.288-2.996,20.208-3.284
			c15.04-0.632,30.012,0.696,45.048,0.484c0.348-0.008,1.124-0.02,2.136-0.036l26.188-28.604c2.348-2.572,2.628-6.3,0.928-9.168
			l12.6-12.596c0.808,0.08,1.62,0.124,2.444,0.124c6.684,0,12.956-2.592,17.664-7.292l1.184-1.188
			c18.648,11.732,40.244,18.04,62.82,18.04c31.588,0,61.288-12.3,83.628-34.64C378.724,306.054,378.724,231.018,332.608,184.906z
			 M308.312,327.878c-32.776,32.772-85.904,32.772-118.684,0c-32.764-32.768-32.764-85.916,0-118.684
			c32.78-32.776,85.916-32.776,118.692,0C341.084,241.958,341.084,295.102,308.312,327.878z"/>
	</g>
</g>
<g>
	<g>
		<path d="M454.18,60.066H42.152C19.004,60.066,0,78.186,0,101.334v325.324c0,4.276,3.64,9.28,7.92,9.28h480.5
			c4.276,0,7.584-5.004,7.584-9.28V101.334C496,78.186,477.336,60.066,454.18,60.066z M80.732,88.318
			c2.908-2.908,8.096-2.908,10.964,0c1.472,1.472,2.288,3.452,2.288,5.5c0,2.016-0.816,3.992-2.288,5.464
			c-1.432,1.432-3.448,2.248-5.464,2.248c-2.056,0-4.068-0.812-5.5-2.248c-1.432-1.472-2.248-3.448-2.248-5.464
			C78.484,91.77,79.3,89.754,80.732,88.318z M56.708,88.318c2.868-2.864,8.06-2.908,10.928,0c1.472,1.436,2.284,3.452,2.284,5.46
			c0,2.056-0.812,4.072-2.284,5.504c-1.432,1.432-3.416,2.284-5.464,2.284c-2.056,0-4.028-0.852-5.464-2.284
			c-1.472-1.432-2.288-3.448-2.288-5.504C54.42,91.77,55.236,89.754,56.708,88.318z M32.952,88.318c2.868-2.908,8.06-2.908,10.968,0
			c1.432,1.436,2.248,3.452,2.248,5.46c0,2.056-0.812,4.032-2.248,5.504c-1.472,1.432-3.452,2.248-5.504,2.248
			c-2.016,0-4.028-0.812-5.464-2.248c-1.436-1.436-2.288-3.448-2.288-5.504C30.668,91.77,31.52,89.754,32.952,88.318z
			 M480.5,420.438h-465v-294.5h465V420.438z"/>
	</g>
</g>
<g>
</g>
<g>
</g>
<g>
</g>
<g>
</g>
<g>
</g>
<g>
</g>
<g>
</g>
<g>
</g>
<g>
</g>
<g>
</g>
<g>
</g>
<g>
</g>
<g>
</g>
<g>
</g>
<g>
</g>
</svg>
