<svg id="Layer_3" enable-background="new 0 0 64 64" height="512" viewBox="0 0 64 64" width="512" xmlns="http://www.w3.org/2000/svg"><g><path d="m47 31c0-2.254-1.501-4.137-3.552-4.762.342-.676.552-1.429.552-2.238 0-2.761-2.239-5-5-5-.809 0-1.562.21-2.238.552-.625-2.051-2.508-3.552-4.762-3.552s-4.137 1.501-4.762 3.552c-.676-.342-1.429-.552-2.238-.552-2.761 0-5 2.239-5 5 0 .809.21 1.562.552 2.238-2.051.625-3.552 2.508-3.552 4.762s1.501 4.137 3.552 4.762c-.342.676-.552 1.429-.552 2.238 0 2.761 2.239 5 5 5 .809 0 1.562-.21 2.238-.552.625 2.051 2.508 3.552 4.762 3.552s4.137-1.501 4.762-3.552c.676.342 1.429.552 2.238.552 2.761 0 5-2.239 5-5 0-.809-.21-1.562-.552-2.238 2.051-.625 3.552-2.508 3.552-4.762zm-15 10c-5.523 0-10-4.477-10-10s4.477-10 10-10 10 4.477 10 10-4.477 10-10 10z" fill="#f4b2b0"/><g fill="#b3404a"><path d="m32 42c6.065 0 11-4.935 11-11s-4.935-11-11-11-11 4.935-11 11 4.935 11 11 11zm0-20c4.963 0 9 4.038 9 9s-4.037 9-9 9-9-4.038-9-9 4.037-9 9-9z"/><path d="m30 35c.256 0 .512-.098.707-.293l6-6-1.414-1.414-5.293 5.293-1.293-1.293-1.414 1.414 2 2c.195.195.451.293.707.293z"/><path d="m6.97 29.243.233-.932c.397-1.587 1.561-2.844 3.113-3.362.409-.137.684-.519.684-.949s-.275-.812-.684-.949c-1.553-.518-2.716-1.774-3.113-3.362l-.233-.932c-.112-.445-.511-.757-.97-.757s-.858.312-.97.757l-.233.932c-.397 1.587-1.561 2.844-3.113 3.362-.409.137-.684.519-.684.949s.275.812.684.949c1.553.518 2.716 1.774 3.113 3.362l.233.932c.112.445.511.757.97.757s.858-.312.97-.757zm-2.807-5.243c.745-.541 1.369-1.229 1.837-2.022.468.793 1.092 1.481 1.837 2.022-.745.541-1.369 1.229-1.837 2.022-.468-.793-1.092-1.481-1.837-2.022z"/><path d="m27.684 7.949c1.553.518 2.716 1.774 3.113 3.362l.233.932c.112.445.511.757.97.757s.858-.312.97-.757l.233-.932c.397-1.587 1.561-2.844 3.113-3.362.409-.137.684-.519.684-.949s-.275-.812-.684-.949c-1.553-.518-2.716-1.774-3.113-3.362l-.233-.932c-.112-.445-.511-.757-.97-.757s-.858.312-.97.757l-.233.932c-.397 1.587-1.561 2.844-3.113 3.362-.409.137-.684.519-.684.949s.275.812.684.949zm4.316-2.971c.468.793 1.092 1.481 1.837 2.022-.745.541-1.369 1.229-1.837 2.022-.468-.793-1.092-1.481-1.837-2.022.745-.541 1.369-1.229 1.837-2.022z"/><path d="m62.316 23.051c-1.553-.518-2.716-1.774-3.113-3.362l-.233-.932c-.112-.445-.511-.757-.97-.757s-.858.312-.97.757l-.233.932c-.397 1.587-1.561 2.844-3.113 3.362-.409.137-.684.519-.684.949s.275.812.684.949c1.553.518 2.716 1.774 3.113 3.362l.233.932c.112.445.511.757.97.757s.858-.312.97-.757l.233-.932c.397-1.587 1.561-2.844 3.113-3.362.409-.137.684-.519.684-.949s-.275-.812-.684-.949zm-4.316 2.971c-.468-.794-1.092-1.481-1.837-2.022.745-.541 1.369-1.229 1.837-2.022.468.794 1.092 1.481 1.837 2.022-.745.541-1.369 1.229-1.837 2.022z"/><path d="m44.825 39.411c.11-.453.175-.924.175-1.411 0-.57-.085-1.135-.254-1.688 1.983-1.011 3.254-3.033 3.254-5.312s-1.271-4.301-3.254-5.313c.169-.553.254-1.117.254-1.687 0-3.309-2.691-6-6-6-.569 0-1.134.085-1.688.254-1.011-1.983-3.033-3.254-5.312-3.254s-4.301 1.271-5.313 3.254c-.553-.169-1.118-.254-1.687-.254-3.309 0-6 2.691-6 6 0 .57.085 1.134.254 1.687-1.983 1.012-3.254 3.034-3.254 5.313s1.271 4.301 3.254 5.312c-.169.553-.254 1.118-.254 1.688 0 .487.065.958.175 1.411l-12.882 12.882c-.286.286-.372.716-.217 1.09.154.373.52.617.924.617h8v8c0 .404.243.769.617.924.124.051.254.076.383.076.26 0 .516-.102.707-.293l15.293-15.293 15.293 15.293c.191.191.447.293.707.293.129 0 .259-.025.383-.076.374-.155.617-.52.617-.924v-8h8c.404 0 .77-.244.924-.617.155-.374.069-.804-.217-1.09zm-26.825-8.411c0-1.758 1.143-3.288 2.843-3.805.282-.086.513-.292.629-.563.115-.272.105-.581-.027-.844-.296-.584-.445-1.185-.445-1.788 0-2.206 1.794-4 4-4 .603 0 1.204.149 1.788.444.265.133.572.142.844.026.271-.116.478-.346.563-.628.518-1.7 2.046-2.842 3.805-2.842s3.287 1.142 3.805 2.842c.086.283.293.512.563.628.272.116.579.108.844-.026.584-.295 1.185-.444 1.788-.444 2.206 0 4 1.794 4 4 0 .603-.149 1.204-.444 1.787-.133.264-.143.572-.027.844.116.271.347.478.629.563 1.699.518 2.842 2.048 2.842 3.806s-1.143 3.287-2.843 3.805c-.283.086-.513.292-.629.564-.115.271-.105.581.027.844.296.583.445 1.184.445 1.787 0 2.206-1.794 4-4 4-.603 0-1.204-.149-1.787-.444-.264-.132-.574-.143-.844-.027-.271.116-.479.346-.564.628-.518 1.7-2.046 2.843-3.805 2.843s-3.287-1.143-3.805-2.843c-.086-.283-.293-.513-.564-.628-.125-.054-.259-.081-.393-.081-.155 0-.31.036-.451.107-.583.296-1.184.445-1.787.445-2.206 0-4-1.794-4-4 0-.603.149-1.204.444-1.787.133-.263.143-.572.027-.844-.116-.271-.346-.478-.629-.564-1.699-.518-2.842-2.047-2.842-3.805zm-8.586 21 10.627-10.627c.851 1.248 2.161 2.157 3.684 2.488l-8.139 8.139zm7.586 1.414 9.663-9.663c.008-.002.017-.003.025-.006.694 1.36 1.869 2.372 3.27 2.883l-12.958 12.958zm17.042-6.786c1.401-.51 2.576-1.523 3.27-2.883.008.003.016.003.025.006l9.663 9.663v6.172zm14.372 5.372-8.139-8.139c1.523-.331 2.833-1.24 3.684-2.488l10.627 10.627z"/></g></g></svg>