<svg height="512" viewBox="0 0 64 64" width="512" xmlns="http://www.w3.org/2000/svg" xmlns:xlink="http://www.w3.org/1999/xlink"><linearGradient id="linear-gradient" gradientUnits="userSpaceOnUse" x1="2.5" x2="71.147" y1="53.5" y2="-15.147"><stop offset="0" stop-color="#003f8a"/><stop offset=".518" stop-color="#00d7df"/><stop offset="1" stop-color="#006df0"/></linearGradient><linearGradient id="linear-gradient-2" x1="1" x2="69.647" xlink:href="#linear-gradient" y1="52" y2="-16.647"/><linearGradient id="linear-gradient-3" x1="-1.5" x2="67.147" xlink:href="#linear-gradient" y1="49.5" y2="-19.147"/><linearGradient id="linear-gradient-4" x1="3.5" x2="72.147" xlink:href="#linear-gradient" y1="54.5" y2="-14.147"/><path d="m62 5h-60a1 1 0 0 0 -1 1v36a1 1 0 0 0 1 1h21.535a8.7 8.7 0 0 0 .465 1.072v13.928a1 1 0 0 0 1.651.759l6.349-5.442 6.349 5.442a1 1 0 0 0 1.651-.759v-13.928a8.7 8.7 0 0 0 .465-1.072h21.535a1 1 0 0 0 1-1v-36a1 1 0 0 0 -1-1zm-23.948 38.5a6.985 6.985 0 0 1 -12.1 0v-.006-.005a6.885 6.885 0 0 1 -.952-3.489 7 7 0 0 1 14 0 6.885 6.885 0 0 1 -.941 3.492v.005zm-6.052-12.5a9.01 9.01 0 0 0 -8.768 7h-17.232v-28h52v28h-17.232a9.01 9.01 0 0 0 -8.768-7zm6 24.826-5.349-4.585a1 1 0 0 0 -1.3 0l-5.351 4.585v-9.126a8.988 8.988 0 0 0 12 0zm23-14.826h-20.066a8.995 8.995 0 0 0 .066-1h18a1 1 0 0 0 1-1v-30a1 1 0 0 0 -1-1h-54a1 1 0 0 0 -1 1v30a1 1 0 0 0 1 1h18a8.995 8.995 0 0 0 .066 1h-20.066v-34h58z" fill="url(#linear-gradient)"/><path d="m46 20h-28a1 1 0 0 0 0 2h28a1 1 0 0 0 0-2z" fill="url(#linear-gradient-2)"/><path d="m24 17h16a1 1 0 0 0 0-2h-16a1 1 0 0 0 0 2z" fill="url(#linear-gradient-3)"/><path d="m37 25h-10a1 1 0 0 0 0 2h10a1 1 0 0 0 0-2z" fill="url(#linear-gradient-4)"/></svg>